# xmcd
#
# Track frame offsets:
#	150
#	10358
#	24255
#	37228
#	50969
#	70340
#	83146
#	98114
#	115067
#	129619
#	137198
#	150935
#	175330
#	192447
#	207209
#	221697
#	237185
#	253278
#
# Disc length: 3599 seconds
#
# Revision: 1
# Processed by: cddbd v1.5.2PL0 Copyright (c) Steve Scherf et al.
# Submitted via: EZCDAudioConverter 2.0.5.1
#
DISCID=080e0d12
DTITLE=Various Artist - Legendy ceské country 3
DYEAR=2005
DGENRE=country
TTITLE0=Honza Nedvěd - Papírky
TTITLE1=Milan Dufek, František Nedvěd, Roman Horký A Wabi Daněk and Rangers - 50
TTITLE1=0 Mil
TTITLE2=Michal Tučný - Tak Už Nefňukej
TTITLE3=Robert Křestan A Druhá Tráva - Až Si Jednou
TTITLE4=Karel Černoch and Filip Brabec - Víc Než Přítel
TTITLE5=Waldemar Matuška A Olga Blechová - Jen Se Přiznej, Že Ti Scházím
TTITLE6=Rangers - Vysočina
TTITLE7=Honza Vyčítal - Cadillac
TTITLE8=Věra Martinová - Dúm U Vychádzejíciho Slunce
TTITLE9=Vabank Unit - Je To Jako Sen
TTITLE10=Wabi Daněk - Outsider Wattz
TTITLE11=Pavel Bobek - Dálnice Hlídka
TTITLE12=Schovanky - Vnímám
TTITLE13=Kamelot - Valeries
TTITLE14=Jakub Smolík - Zachraňte Milenky
TTITLE15=Mirek Hoffmann and Tomáš Linka - Poslední Sklenka
TTITLE16=Karel Zich and Spirituál Kvintet - Doney Gal
TTITLE17=Naďa Urbánková - Závidím
EXTD=
EXTT0=
EXTT1=
EXTT2=
EXTT3=
EXTT4=
EXTT5=
EXTT6=
EXTT7=
EXTT8=
EXTT9=
EXTT10=
EXTT11=
EXTT12=
EXTT13=
EXTT14=
EXTT15=
EXTT16=
EXTT17=
PLAYORDER=
